<svg width="50" height="49" viewBox="0 0 50 49" fill="none" xmlns="http://www.w3.org/2000/svg">
<path d="M38.0156 18.4072V32.1884C38.0156 34.3015 36.3022 36.0165 34.1875 36.0165H22.7031L19.6406 40.6103V36.0165H15.8125C13.6978 36.0165 11.9844 34.3015 11.9844 32.1884V18.4072C11.9844 16.2925 13.6978 14.579 15.8125 14.579H34.1875C36.3022 14.579 38.0156 16.2925 38.0156 18.4072Z" fill="#FFF176"/>
<path d="M25.0002 30.6572C23.6404 30.6572 22.4874 29.7706 22.0877 28.544C21.9346 28.0709 22.3358 27.5947 22.8335 27.5947H27.1684C27.6661 27.5947 28.0673 28.0724 27.9141 28.544C27.513 29.769 26.3599 30.6572 25.0002 30.6572Z" fill="black"/>
<path d="M47.2031 25.2656V29.8594C47.2031 31.5437 45.825 32.9219 44.1406 32.9219C43.2984 32.9219 42.6094 32.2328 42.6094 31.3906V23.7344C42.6094 22.8922 43.2984 22.2031 44.1406 22.2031C44.9828 22.2031 45.7484 22.54 46.2997 23.1066C46.8662 23.6578 47.2031 24.4234 47.2031 25.2656ZM7.39062 23.7344V31.3906C7.39062 32.2328 6.70156 32.9219 5.85938 32.9219C4.175 32.9219 2.79688 31.5437 2.79688 29.8594V25.2656C2.79688 24.4234 3.13375 23.6578 3.70031 23.1066C4.25156 22.54 5.01719 22.2031 5.85938 22.2031C6.70156 22.2031 7.39062 22.8922 7.39062 23.7344ZM27.2969 42.1094C28.1391 42.1094 28.8281 42.7984 28.8281 43.6406C28.8281 44.4828 28.1391 45.1719 27.2969 45.1719H24.2344C23.3922 45.1719 22.7031 44.4828 22.7031 43.6406C22.7031 42.7984 23.3922 42.1094 24.2344 42.1094H27.2969Z" fill="#0077B6"/>
<path d="M19.6406 41.3759C19.4952 41.3759 19.3482 41.3346 19.2165 41.2473C18.8643 41.013 18.7693 40.5383 19.0036 40.1861L22.0661 35.5924C22.2085 35.3795 22.4474 35.2509 22.7031 35.2509H34.1875C35.8765 35.2509 37.25 33.8774 37.25 32.1884V18.4072C37.25 16.7182 35.8765 15.3447 34.1875 15.3447H15.8125C14.1235 15.3447 12.75 16.7182 12.75 18.4072V32.1884C12.75 33.8774 14.1235 35.2509 15.8125 35.2509H18.1094C18.532 35.2509 18.875 35.5939 18.875 36.0165C18.875 36.4392 18.532 36.7822 18.1094 36.7822H15.8125C13.2798 36.7822 11.2188 34.7211 11.2188 32.1884V18.4072C11.2188 15.8745 13.2798 13.8134 15.8125 13.8134H34.1875C36.7202 13.8134 38.7812 15.8745 38.7812 18.4072V32.1884C38.7812 34.7211 36.7202 36.7822 34.1875 36.7822H23.1135L20.2776 41.0344C20.1306 41.2549 19.8872 41.3759 19.6406 41.3759Z" fill="black"/>
<path d="M18.875 27.5947C18.4524 27.5947 18.1094 27.2517 18.1094 26.829V25.2978C18.1094 24.8752 18.4524 24.5322 18.875 24.5322C19.2976 24.5322 19.6406 24.8752 19.6406 25.2978V26.829C19.6406 27.2517 19.2976 27.5947 18.875 27.5947ZM31.125 27.5947C30.7024 27.5947 30.3594 27.2517 30.3594 26.829V25.2978C30.3594 24.8752 30.7024 24.5322 31.125 24.5322C31.5476 24.5322 31.8906 24.8752 31.8906 25.2978V26.829C31.8906 27.2517 31.5476 27.5947 31.125 27.5947Z" fill="black"/>
<path d="M7.39062 29.8594C6.968 29.8594 6.625 29.5164 6.625 29.0938V21.4375C6.625 11.3052 14.8677 3.0625 25 3.0625C35.1323 3.0625 43.375 11.3052 43.375 21.4375V26.0312C43.375 26.4539 43.032 26.7969 42.6094 26.7969C42.1867 26.7969 41.8438 26.4539 41.8438 26.0312V21.4375C41.8438 12.1505 34.287 4.59375 25 4.59375C15.713 4.59375 8.15625 12.1505 8.15625 21.4375V29.0938C8.15625 29.5164 7.81325 29.8594 7.39062 29.8594Z" fill="black"/>
<path d="M44.1406 33.6875C42.8743 33.6875 41.8438 32.657 41.8438 31.3906V23.7344C41.8438 22.468 42.8743 21.4375 44.1406 21.4375C45.1727 21.4375 46.1343 21.8402 46.8479 22.5722C47.566 23.2719 47.9688 24.2336 47.9688 25.2656V29.8594C47.9688 31.9694 46.2507 33.6875 44.1406 33.6875ZM44.1406 22.9688C43.718 22.9688 43.375 23.3118 43.375 23.7344V31.3906C43.375 31.8132 43.718 32.1562 44.1406 32.1562C45.407 32.1562 46.4375 31.1257 46.4375 29.8594V25.2656C46.4375 24.6501 46.1986 24.0774 45.7653 23.6547C45.3289 23.2076 44.7562 22.9688 44.1406 22.9688ZM5.85938 33.6875C3.74931 33.6875 2.03125 31.9694 2.03125 29.8594V25.2656C2.03125 24.2336 2.43397 23.2719 3.16591 22.5584C3.86569 21.8402 4.82731 21.4375 5.85938 21.4375C7.12572 21.4375 8.15625 22.468 8.15625 23.7344V31.3906C8.15625 32.657 7.12572 33.6875 5.85938 33.6875ZM5.85938 22.9688C5.24381 22.9688 4.67112 23.2076 4.2485 23.641C3.80137 24.0774 3.5625 24.6501 3.5625 25.2656V29.8594C3.5625 31.1257 4.59303 32.1562 5.85938 32.1562C6.282 32.1562 6.625 31.8132 6.625 31.3906V23.7344C6.625 23.3118 6.282 22.9688 5.85938 22.9688ZM34.1875 44.4062H28.8281C28.4055 44.4062 28.0625 44.0632 28.0625 43.6406C28.0625 43.218 28.4055 42.875 28.8281 42.875H34.1875C38.4092 42.875 41.8438 39.4404 41.8438 35.2188C41.8438 34.7961 42.1867 34.4531 42.6094 34.4531C43.032 34.4531 43.375 34.7961 43.375 35.2188C43.375 40.2857 39.2544 44.4062 34.1875 44.4062Z" fill="black"/>
<path d="M27.2969 45.9375H24.2344C22.968 45.9375 21.9375 44.907 21.9375 43.6406C21.9375 42.3743 22.968 41.3438 24.2344 41.3438H27.2969C28.5632 41.3438 29.5938 42.3743 29.5938 43.6406C29.5938 44.907 28.5632 45.9375 27.2969 45.9375ZM24.2344 42.875C23.8118 42.875 23.4688 43.218 23.4688 43.6406C23.4688 44.0633 23.8118 44.4062 24.2344 44.4062H27.2969C27.7195 44.4062 28.0625 44.0633 28.0625 43.6406C28.0625 43.218 27.7195 42.875 27.2969 42.875H24.2344Z" fill="black"/>
</svg>
