<svg width="151" height="24" viewBox="0 0 151 24" fill="none" xmlns="http://www.w3.org/2000/svg">
<path d="M0.0556641 23.1177V0.882272H13.0161V1.93352H1.27898V11.2992H12.5533V12.3504H1.27898V22.0665H13.0161V23.1177H0.0556641Z" fill="#023E8A"/>
<path d="M33.2307 23.1177L30.5527 15.8864H20.2703L17.5922 23.1177H16.3358L24.6345 0.882272H26.2215L34.5202 23.1177H33.2307ZM25.4611 2.02909H25.3288L20.6009 14.867H30.2221L25.4611 2.02909Z" fill="#023E8A"/>
<path d="M44.7481 23.5C42.8525 23.5 41.2765 23.1602 40.0202 22.4806C38.7858 21.7798 37.7499 20.8878 36.9123 19.8047L37.8381 19.1039C38.6536 20.1233 39.5904 20.9409 40.6484 21.5568C41.7284 22.1514 43.106 22.4488 44.7812 22.4488C46.7208 22.4488 48.2086 22.024 49.2446 21.1745C50.3026 20.3038 50.8316 19.0402 50.8316 17.3837C50.8316 16.5554 50.6993 15.8546 50.4348 15.2812C50.1703 14.7078 49.8067 14.2405 49.3438 13.8795C48.8809 13.4972 48.3409 13.1999 47.7237 12.9875C47.1066 12.7539 46.4453 12.5734 45.74 12.446L43.5248 12.0319C42.4007 11.8195 41.4529 11.5328 40.6814 11.1717C39.91 10.7895 39.2818 10.3541 38.7969 9.86565C38.334 9.35596 37.9923 8.80379 37.7719 8.20914C37.5735 7.59326 37.4744 6.9349 37.4744 6.23407C37.4744 5.27839 37.6397 4.43952 37.9703 3.71745C38.323 2.99538 38.8079 2.40074 39.425 1.93352C40.0643 1.44506 40.8247 1.08403 41.7064 0.850415C42.588 0.616805 43.5689 0.5 44.6489 0.5C46.3682 0.5 47.7899 0.786704 48.914 1.36011C50.0601 1.93352 50.9749 2.70868 51.6582 3.6856L50.7324 4.32271C50.0712 3.43075 49.2446 2.75115 48.2527 2.28393C47.2609 1.79548 46.0375 1.55125 44.5828 1.55125C42.7313 1.55125 41.2876 1.93352 40.2516 2.69806C39.2157 3.4626 38.6977 4.63066 38.6977 6.20222C38.6977 6.988 38.8299 7.65697 39.0944 8.20914C39.3589 8.74007 39.7116 9.18606 40.1524 9.54709C40.6153 9.90813 41.1553 10.2054 41.7725 10.4391C42.3896 10.6514 43.0619 10.8213 43.7893 10.9488L46.0045 11.3629C47.1727 11.5965 48.1425 11.9044 48.914 12.2867C49.7075 12.669 50.3357 13.115 50.7985 13.6247C51.2614 14.1343 51.581 14.6971 51.7573 15.313C51.9557 15.9289 52.0549 16.5873 52.0549 17.2881C52.0549 19.3056 51.3937 20.8453 50.0712 21.9072C48.7707 22.9691 46.9964 23.5 44.7481 23.5Z" fill="#023E8A"/>
<path d="M62.3947 23.1177V13.8795L54.4266 0.882272H55.8152L62.9567 12.6053H63.0559L70.2305 0.882272H71.586L63.618 13.8795V23.1177H62.3947Z" fill="#023E8A"/>
<path d="M79.7737 23.1177H74.7482V0.882272H85.6918C86.7498 0.882272 87.7086 1.05217 88.5683 1.39197C89.4279 1.73176 90.1553 2.22022 90.7504 2.85734C91.3676 3.47322 91.8414 4.21653 92.1721 5.08726C92.5027 5.95799 92.668 6.92428 92.668 7.98615C92.668 9.494 92.3153 10.8107 91.61 11.9363C90.9267 13.0619 89.8797 13.8795 88.4691 14.3892L92.9986 23.1177H87.4111L83.3775 14.9626H79.7737V23.1177ZM85.0636 10.885C85.8131 10.885 86.3972 10.7045 86.816 10.3435C87.2568 9.96122 87.4772 9.40905 87.4772 8.68698V7.28532C87.4772 6.56325 87.2568 6.0217 86.816 5.66066C86.3972 5.27839 85.8131 5.08726 85.0636 5.08726H79.7737V10.885H85.0636Z" fill="#023E8A"/>
<path d="M96.1339 23.1177V19.2632H99.1095V4.73684H96.1339V0.882272H107.111V4.73684H104.135V19.2632H107.111V23.1177H96.1339Z" fill="#023E8A"/>
<path d="M111.298 0.882272H119.993C121.514 0.882272 122.903 1.11588 124.159 1.5831C125.415 2.05032 126.484 2.75115 127.366 3.6856C128.248 4.5988 128.931 5.75623 129.416 7.15789C129.901 8.53832 130.143 10.1524 130.143 12C130.143 13.8476 129.901 15.4723 129.416 16.874C128.931 18.2544 128.248 19.4118 127.366 20.3463C126.484 21.2595 125.415 21.9497 124.159 22.4169C122.903 22.8841 121.514 23.1177 119.993 23.1177H111.298V0.882272ZM119.993 18.8172C121.492 18.8172 122.671 18.4137 123.531 17.6066C124.39 16.7996 124.82 15.5042 124.82 13.7202V10.2798C124.82 8.49585 124.39 7.20037 123.531 6.39335C122.671 5.58633 121.492 5.18283 119.993 5.18283H116.323V18.8172H119.993Z" fill="#023E8A"/>
<path d="M134.351 23.1177V0.882272H150.056V5.18283H139.376V9.73823H148.535V14.0069H139.376V18.8172H150.056V23.1177H134.351Z" fill="#023E8A"/>
</svg>
