<svg width="25" height="32" viewBox="0 0 25 32" fill="none" xmlns="http://www.w3.org/2000/svg">
<path d="M7.61845 6.75911C8.31163 6.75834 8.9762 6.48264 9.46636 5.99248C9.95652 5.50233 10.2322 4.83775 10.233 4.14457C10.2322 3.45138 9.95652 2.78681 9.46636 2.29665C8.9762 1.8065 8.31163 1.53079 7.61845 1.53003C6.92526 1.53079 6.26069 1.8065 5.77053 2.29665C5.28037 2.78681 5.00467 3.45138 5.00391 4.14457C5.00467 4.83775 5.28037 5.50233 5.77053 5.99248C6.26069 6.48264 6.92526 6.75834 7.61845 6.75911Z" fill="#023E8A"/>
<path d="M9.2502 30.4699C13.1046 30.4699 16.4245 27.7722 17.2199 24.0255L16.8128 23.3201C16.7604 23.2299 16.6853 23.155 16.5948 23.1029C16.5044 23.0508 16.4019 23.0233 16.2975 23.0233L10.7326 22.8688L9.2502 22.8693C7.55416 22.8693 5.87353 21.5231 5.50401 19.8679L4.56289 15.6507C3.49455 16.4044 2.62251 17.4034 2.01992 18.5637C1.41732 19.724 1.10173 21.0119 1.09961 22.3194C1.09913 26.8132 4.75535 30.4699 9.2502 30.4699Z" fill="#F2C142"/>
<path d="M5.30314 13.9176L6.57721 19.6283C6.83655 20.7888 8.06058 21.7689 9.24997 21.7689H10.7473L16.3122 21.9233H16.3127C16.9006 21.9233 17.4631 22.2476 17.7648 22.7701L20.9476 28.2821C21.2064 28.7306 21.8338 28.8023 22.4737 28.4582C22.7215 28.325 22.875 28.159 22.9303 27.9655C23.0107 27.6846 22.8822 27.3978 22.7985 27.2515L18.896 20.4395C18.844 20.3491 18.7693 20.2739 18.6792 20.2215C18.5891 20.169 18.4868 20.1412 18.3826 20.1407L13.8685 20.1219C13.3374 20.1217 12.8224 19.9401 12.4086 19.6072C11.9949 19.2742 11.7074 18.8099 11.5936 18.2912C11.562 18.1494 11.5626 18.0024 11.5954 17.8609C11.6282 17.7194 11.6924 17.5871 11.7832 17.4738C11.874 17.3604 11.9891 17.2689 12.12 17.206C12.2509 17.1432 12.3943 17.1105 12.5396 17.1104H16.7015C17.2038 17.1104 17.6373 16.7275 17.6676 16.2559C17.6765 16.1302 17.6592 16.004 17.6167 15.8854C17.5743 15.7667 17.5078 15.6581 17.4212 15.5665C17.3358 15.4745 17.2322 15.4013 17.117 15.3513C17.0018 15.3014 16.8775 15.2759 16.752 15.2763H11.6966C11.4759 15.2776 11.2614 15.2029 11.0892 15.0649C10.917 14.9268 10.7974 14.7337 10.7507 14.518L10.2984 12.4934C9.96976 11.0225 8.41903 9.78021 6.91257 9.78021C5.70971 9.78021 4.86963 10.5727 4.86963 11.7072C4.86963 11.8886 4.89032 12.0719 4.93121 12.2514L5.30314 13.9176Z" fill="#023E8A"/>
<path d="M9.25048 31.5698C11.172 31.5698 13.0457 30.9714 14.6115 29.8577C16.1774 28.7441 17.3575 27.1704 17.9881 25.3554L19.9954 28.8317C20.3505 29.4466 20.9822 29.7733 21.6943 29.7733C22.1134 29.7733 22.5604 29.6602 22.9958 29.4259C23.642 29.0775 23.8922 28.6026 23.9884 28.2658C24.1299 27.7698 24.0462 27.215 23.7527 26.7031L19.8506 19.8925C19.7026 19.6346 19.4894 19.4201 19.2325 19.2704C18.9755 19.1208 18.6838 19.0413 18.3865 19.0399L13.8724 19.0211C13.6197 19.0208 13.3732 18.9428 13.1662 18.7978C12.9593 18.6528 12.8018 18.4478 12.7152 18.2104H16.701C17.7903 18.2104 18.6968 17.3828 18.7651 16.3267C18.7841 16.0508 18.7458 15.7739 18.6525 15.5134C18.5593 15.253 18.4132 15.0147 18.2233 14.8135C18.0342 14.6126 17.8061 14.4524 17.553 14.3427C17.2998 14.233 17.0269 14.1761 16.751 14.1755H11.8025L11.3733 12.2529C10.9326 10.2826 8.93196 8.6794 6.91356 8.6794C5.09243 8.6794 3.77025 9.95251 3.77025 11.7063C3.77025 11.9699 3.80008 12.2351 3.85878 12.4925L4.30672 14.4998C1.64022 16.1891 4.18393e-08 19.1472 4.18393e-08 22.3179C-0.000481103 27.42 4.14891 31.5698 9.25048 31.5698ZM6.91308 9.78026C8.42003 9.78026 9.97028 11.0226 10.2989 12.4934L10.7512 14.5181C10.7979 14.7338 10.9174 14.927 11.0896 15.065C11.2619 15.2031 11.4764 15.2777 11.6971 15.2764H16.7515C17.0075 15.2764 17.2457 15.3793 17.4208 15.5665C17.5072 15.6582 17.5736 15.7669 17.616 15.8855C17.6584 16.0042 17.6758 16.1303 17.6671 16.256C17.6368 16.727 17.2033 17.1105 16.701 17.1105H12.5391C12.3938 17.1104 12.2504 17.1431 12.1195 17.2059C11.9885 17.2688 11.8734 17.3603 11.7825 17.4736C11.6917 17.587 11.6275 17.7194 11.5948 17.8609C11.562 18.0024 11.5614 18.1495 11.5932 18.2912C11.7067 18.81 11.9943 19.2745 12.408 19.6074C12.8218 19.9404 13.3369 20.122 13.868 20.122L18.3821 20.1407C18.5938 20.1417 18.7906 20.2557 18.8955 20.4395L22.7981 27.2516C22.8818 27.3974 23.0103 27.6846 22.9299 27.9656C22.8746 28.159 22.7211 28.325 22.4733 28.4583C21.8334 28.8028 21.206 28.7306 20.9471 28.2822L17.7643 22.7702C17.617 22.5148 17.4055 22.3024 17.1508 22.1539C16.8961 22.0053 16.6071 21.9259 16.3122 21.9234L10.7478 21.7689H9.25048C8.06109 21.7689 6.83706 20.7884 6.57773 19.6283L5.30414 13.9176L4.93173 12.2514C4.89099 12.0729 4.87034 11.8904 4.87014 11.7072C4.87014 10.5727 5.71022 9.78026 6.91308 9.78026ZM4.56269 15.6507L5.50381 19.8679C5.87333 21.5231 7.55397 22.8693 9.25 22.8693L10.7324 22.8688L16.2973 23.0233C16.5095 23.0233 16.7068 23.1373 16.8126 23.3201L17.2197 24.0255C16.4243 27.7717 13.1045 30.4699 9.25 30.4699C4.75563 30.4699 1.09893 26.8133 1.09893 22.3189C1.10142 21.0115 1.41723 19.7238 2.01989 18.5636C2.62255 17.4034 3.4945 16.4045 4.56269 15.6507ZM7.61892 7.85905C9.66716 7.85905 11.3334 6.19236 11.3334 4.14461C11.3334 2.09638 9.66716 0.430176 7.61892 0.430176C5.57069 0.430176 3.90449 2.09638 3.90449 4.14461C3.90449 6.19284 5.57069 7.85905 7.61892 7.85905ZM7.61892 1.53007C8.31211 1.53084 8.97668 1.80654 9.46684 2.2967C9.95699 2.78685 10.2327 3.45143 10.2335 4.14461C10.2327 4.8378 9.95699 5.50237 9.46684 5.99253C8.97668 6.48268 8.31211 6.75839 7.61892 6.75915C6.92574 6.75839 6.26116 6.48268 5.77101 5.99253C5.28085 5.50237 5.00515 4.8378 5.00438 4.14461C5.00515 3.45143 5.28085 2.78685 5.77101 2.2967C6.26116 1.80654 6.92574 1.53084 7.61892 1.53007Z" fill="#023E8A"/>
</svg>
