<svg width="90" height="90" viewBox="0 0 90 90" fill="none" xmlns="http://www.w3.org/2000/svg">
<path d="M13 38.1111L19.7618 19.1344C20.8625 16.0451 23.667 14 26.8009 14H62.1991C65.333 14 68.1375 16.0451 69.2382 19.1344L76 38.1111M13 38.1111H76M13 38.1111V69.1111M76 38.1111V69.1111M76 69.1111H13M76 69.1111V76H70.2727V69.1111M13 69.1111V76H18.7273V69.1111" stroke="#0077B6" stroke-width="5" stroke-linecap="round" stroke-linejoin="round"/>
<path d="M27.0625 56.1407C29.3062 56.1407 31.5 53.6467 31.5 50.5703C31.5 47.4939 29.3062 45.0001 27.0625 45.0001C24.8188 45.0001 23 47.494 23 50.5704C23 53.6468 24.8188 56.1407 27.0625 56.1407Z" stroke="#0077B6" stroke-width="2" stroke-linecap="round" stroke-linejoin="round"/>
<path d="M60.0625 56.1406C62.3062 56.1406 64.5 53.6466 64.5 50.5702C64.5 47.4938 62.3062 45 60.0625 45C57.8188 45 56 47.4939 56 50.5703C56 53.6467 57.8188 56.1406 60.0625 56.1406Z" stroke="#0077B6" stroke-width="2" stroke-linecap="round" stroke-linejoin="round"/>
</svg>
