<svg width="68" height="55" viewBox="0 0 68 55" fill="none" xmlns="http://www.w3.org/2000/svg">
<path d="M15.6765 13.1611H10.0742H4.47183C2.51438 13.1611 0.961914 14.7136 0.961914 16.671V29.3607C0.961914 31.3182 2.51438 32.8706 4.47183 32.8706H5.3493V51.3652C5.3493 52.8501 6.56427 54.0651 8.04924 54.0651H12.1666C13.6516 54.0651 14.8666 52.8501 14.8666 51.3652V32.8706H15.744C17.7015 32.8706 19.254 31.3182 19.254 29.3607V16.671C19.1865 14.7811 17.634 13.1611 15.6765 13.1611Z" fill="#0077B6"/>
<path d="M7.10437 10.7988C7.98185 11.3388 8.99432 11.6762 10.0743 11.6762C11.1543 11.6762 12.1667 11.3388 13.0442 10.7988C14.5292 9.85379 15.5417 8.16633 15.5417 6.20888C15.5417 3.17146 13.1117 0.741516 10.0743 0.741516C7.03687 0.741516 4.60693 3.17146 4.60693 6.20888C4.60693 8.16633 5.61941 9.85379 7.10437 10.7988Z" fill="#0077B6"/>
<path d="M35.0491 13.1611H29.4467H23.8444C21.8869 13.1611 20.3345 14.7136 20.3345 16.671V29.3607C20.3345 31.3182 21.8869 32.8706 23.8444 32.8706H24.7219V51.3652C24.7219 52.8501 25.9368 54.0651 27.4218 54.0651H31.5392C33.0242 54.0651 34.2391 52.8501 34.2391 51.3652V32.8706H35.1166C37.0741 32.8706 38.6265 31.3182 38.6265 29.3607V16.671C38.559 14.7811 37.0066 13.1611 35.0491 13.1611Z" fill="#0077B6"/>
<path d="M26.4764 10.7988C27.3539 11.3388 28.3664 11.6762 29.4464 11.6762C30.5263 11.6762 31.5388 11.3388 32.4163 10.7988C33.9013 9.85379 34.9137 8.16633 34.9137 6.20888C34.9137 3.17146 32.4838 0.741516 29.4464 0.741516C26.4089 0.741516 23.979 3.17146 23.979 6.20888C23.979 8.16633 24.9915 9.85379 26.4764 10.7988Z" fill="#0077B6"/>
<path d="M63.5325 13.1611H57.9301H52.3278C50.3703 13.1611 48.8179 14.7136 48.8179 16.671V29.3607C48.8179 31.3182 50.3703 32.8706 52.3278 32.8706H53.2053V51.3652C53.2053 52.8501 54.4202 54.0651 55.9052 54.0651H60.0226C61.5076 54.0651 62.7225 52.8501 62.7225 51.3652V32.8706H63.6C65.5575 32.8706 67.1099 31.3182 67.1099 29.3607V16.671C67.0424 14.7811 65.49 13.1611 63.5325 13.1611Z" fill="white" stroke="#0077B6" stroke-miterlimit="10"/>
<path d="M54.9603 10.7988C55.8378 11.3388 56.8503 11.6762 57.9303 11.6762C59.0102 11.6762 60.0227 11.3388 60.9002 10.7988C62.3851 9.85379 63.3976 8.16633 63.3976 6.20888C63.3976 3.17146 60.9677 0.741516 57.9303 0.741516C54.8928 0.741516 52.4629 3.17146 52.4629 6.20888C52.4629 8.16633 53.4754 9.85379 54.9603 10.7988Z" fill="white" stroke="#0077B6" stroke-miterlimit="10"/>
</svg>
